HIERARCHY
ROOT Hips
{
	OFFSET 0.000000 0.000000 0.000000
	CHANNELS 6 Xposition Yposition Zposition Xrotation Yrotation Zrotation
	JOINT LeftUpLeg_virtual
	{
		OFFSET 0.000000 0.000000 0.000000
		CHANNELS 3 Xrotation Yrotation Zrotation
		JOINT LeftUpLeg
		{
			OFFSET 10.205400 -3.823500 0.155100
			CHANNELS 3 Xrotation Yrotation Zrotation
			JOINT LeftLeg
			{
				OFFSET 0.708757 -12.982077 0.567790
				CHANNELS 3 Xrotation Yrotation Zrotation
				JOINT LeftFoot
				{
					OFFSET -0.708756 -10.717838 -2.184338
					CHANNELS 3 Xrotation Yrotation Zrotation
					JOINT LeftToeBase
					{
						OFFSET 0.108149 -7.191104 7.560241
						CHANNELS 3 Xrotation Yrotation Zrotation
						JOINT LeftToe_End
						{
							OFFSET 0.070230 0.081724 4.490308
							CHANNELS 3 Xrotation Yrotation Zrotation
							End Site
							{
								OFFSET 0 0 0
							}
						}
					}
				}
			}
		}
	}
	JOINT RightUpLeg_virtual
	{
		OFFSET 0.000000 0.000000 0.000000
		CHANNELS 3 Xrotation Yrotation Zrotation
		JOINT RightUpLeg
		{
			OFFSET -10.205400 -3.823500 0.005500
			CHANNELS 3 Xrotation Yrotation Zrotation
			JOINT RightLeg
			{
				OFFSET -0.708756 -12.982134 0.610632
				CHANNELS 3 Xrotation Yrotation Zrotation
				JOINT RightFoot
				{
					OFFSET 0.708754 -10.717769 -1.945823
					CHANNELS 3 Xrotation Yrotation Zrotation
					JOINT RightToeBase
					{
						OFFSET -0.108140 -7.191069 7.372968
						CHANNELS 3 Xrotation Yrotation Zrotation
						JOINT RightToe_End
						{
							OFFSET -0.070227 0.081735 4.479403
							CHANNELS 3 Xrotation Yrotation Zrotation
							End Site
							{
								OFFSET 0 0 0
							}
						}
					}
				}
			}
		}
	}
	JOINT Spine_virtual
	{
		OFFSET 0.000000 0.000000 0.000000
		CHANNELS 3 Xrotation Yrotation Zrotation
		JOINT Spine
		{
			OFFSET 0.000000 6.876099 0.125700
			CHANNELS 3 Xrotation Yrotation Zrotation
			JOINT Spine1
			{
				OFFSET 0.000000 5.730043 0.104720
				CHANNELS 3 Xrotation Yrotation Zrotation
				JOINT Spine1_split
				{
					OFFSET 0.000000 5.730043 0.104720
					CHANNELS 3 Xrotation Yrotation Zrotation
					JOINT Spine2
					{
						OFFSET 0.000000 5.730043 0.104720
						CHANNELS 3 Xrotation Yrotation Zrotation
						JOINT Neck_virtual
						{
							OFFSET 0.000000 0.000000 0.000000
							CHANNELS 3 Xrotation Yrotation Zrotation
							JOINT Neck
							{
								OFFSET 0.000000 10.314075 0.188496
								CHANNELS 3 Xrotation Yrotation Zrotation
								JOINT Head
								{
									OFFSET 0.000000 7.643700 -2.377400
									CHANNELS 3 Xrotation Yrotation Zrotation
									JOINT HeadTop_End
									{
										OFFSET 0.000000 43.788605 -13.619600
										CHANNELS 3 Xrotation Yrotation Zrotation
										End Site
										{
											OFFSET 0 0 0
										}
									}
								}
							}
						}
						JOINT LeftShoulder_virtual
						{
							OFFSET 0.000000 0.000000 0.000000
							CHANNELS 3 Xrotation Yrotation Zrotation
							JOINT LeftShoulder
							{
								OFFSET 2.196100 4.412489 0.087492
								CHANNELS 3 Xrotation Yrotation Zrotation
								JOINT LeftShoulder_split
								{
									OFFSET 2.196100 4.412489 0.087492
									CHANNELS 3 Xrotation Yrotation Zrotation
									JOINT LeftArm
									{
										OFFSET 8.771219 -2.981674 -0.026999
										CHANNELS 3 Xrotation Yrotation Zrotation
										JOINT LeftForeArm
										{
											OFFSET 8.512804 0.000000 -0.000000
											CHANNELS 3 Xrotation Yrotation Zrotation
											JOINT LeftHand
											{
												OFFSET 18.484802 0.000000 -0.000000
												CHANNELS 3 Xrotation Yrotation Zrotation
												End Site
												{
													OFFSET 0 0 0
												}
											}
										}
									}
								}
							}
						}
						JOINT RightShoulder_virtual
						{
							OFFSET 0.000000 0.000000 0.000000
							CHANNELS 3 Xrotation Yrotation Zrotation
							JOINT RightShoulder
							{
								OFFSET -2.196100 4.412496 0.070690
								CHANNELS 3 Xrotation Yrotation Zrotation
								JOINT RightShoulder_split
								{
									OFFSET -2.196100 4.412496 0.070690
									CHANNELS 3 Xrotation Yrotation Zrotation
									JOINT RightArm
									{
										OFFSET -8.771282 -2.981682 -0.094208
										CHANNELS 3 Xrotation Yrotation Zrotation
										JOINT RightForeArm
										{
											OFFSET -8.494598 0.000000 0.000000
											CHANNELS 3 Xrotation Yrotation Zrotation
											JOINT RightHand
											{
												OFFSET -18.483803 0.000000 0.000001
												CHANNELS 3 Xrotation Yrotation Zrotation
												End Site
												{
													OFFSET 0 0 0
												}
											}
										}
									}
								}
							}
						}
					}
				}
			}
		}
	}
}
MOTION
Frames: 7
Frame Time: 0.03333333
6.643840 20.949917 -19.131926 0.000000 0.000000 0.000000 50.227060 -30.631100 18.089923 -46.628537 -0.188344 -2.290755 109.013371 -3.932068 1.660594 -16.221520 -6.296322 -6.615577 27.508671 -33.664158 -52.042097 0.000000 0.000000 0.000000 50.227060 -30.631100 18.089923 -97.780735 -15.872675 -13.271419 114.473848 -14.139082 4.667365 -46.056799 -12.905656 6.323588 -10.719712 0.000084 0.000008 0.000000 0.000000 0.000000 50.227060 -30.631100 18.089923 30.726514 10.005463 2.187874 6.852564 2.109580 1.261713 0.000000 0.000000 0.000000 0.000000 0.000000 0.000000 6.827489 2.179076 1.278341 -8.363017 -4.563619 1.740605 -21.240567 -18.756120 -6.620601 0.000000 0.000000 0.000000 6.827489 2.179076 1.278341 5.608884 -23.469922 -9.113379 0.000000 0.000000 0.000000 -29.183206 -12.430035 -40.885407 -0.000012 -37.552629 -0.000007 0.000000 0.000000 0.000000 6.827489 2.179076 1.278341 -0.559040 30.137189 14.434194 0.000000 0.000000 0.000000 -44.135788 50.708725 11.921778 0.000011 9.608862 -0.000005 0.000000 0.000000 0.000000 
6.637626 21.228243 -18.824915 0.000000 0.000000 0.000000 49.313942 -31.640452 18.237575 -50.078718 -0.980947 -0.780358 111.807758 -3.534650 0.926858 -14.458392 -5.658016 -6.137771 30.321607 -35.408459 -48.526691 0.000000 0.000000 0.000000 49.313942 -31.640452 18.237575 -95.002433 -15.314522 -13.073512 112.976247 -13.171082 4.797866 -46.203648 -12.886217 6.393807 -10.406634 0.000054 0.000006 0.000000 0.000000 0.000000 49.313942 -31.640452 18.237575 30.787023 9.668552 1.638717 6.860067 2.066864 1.129960 0.000000 0.000000 0.000000 0.000000 0.000000 0.000000 6.835843 2.135327 1.146297 -7.949789 -4.235516 1.372952 -21.131442 -17.422419 -7.101415 0.000000 0.000000 0.000000 6.835843 2.135327 1.146297 5.673074 -23.734093 -9.066826 0.000000 0.000000 0.000000 -27.862346 -10.438786 -41.186474 -0.000002 -38.893457 0.000025 0.000000 0.000000 0.000000 6.835843 2.135327 1.146297 -0.454787 29.350983 14.140366 0.000000 0.000000 0.000000 -42.011916 48.862746 12.344898 0.000006 14.620240 -0.000027 0.000000 0.000000 0.000000 
6.642759 21.513956 -18.460718 0.000000 0.000000 0.000000 48.380672 -32.625300 18.408529 -53.738453 -2.126428 0.800367 114.072007 -3.893250 0.395827 -12.101821 -4.359725 -6.544441 -58.707102 -33.084473 30.774893 0.000000 0.000000 0.000000 48.380672 -32.625300 18.408529 -92.134061 -14.411926 -13.275952 111.410665 -11.935646 4.976160 -46.139178 -12.930437 6.939400 -10.059929 0.000033 0.000006 0.000000 0.000000 0.000000 48.380672 -32.625300 18.408529 30.947078 9.414665 0.942358 6.900513 2.048719 0.955031 0.000000 0.000000 0.000000 0.000000 0.000000 0.000000 6.876929 2.117282 0.970893 -7.571704 -3.834393 0.935131 -20.880404 -15.870592 -7.421777 0.000000 0.000000 0.000000 6.876929 2.117282 0.970893 5.697511 -23.899185 -8.949564 0.000000 0.000000 0.000000 -27.065956 -8.692579 -41.259844 0.000034 -40.071600 0.000026 0.000000 0.000000 0.000000 6.876929 2.117282 0.970893 -0.244482 28.311472 13.397225 0.000000 0.000000 0.000000 -39.815895 48.075284 12.700987 0.000000 18.268902 0.000000 0.000000 0.000000 0.000000 
6.674353 21.837708 -18.024969 0.000000 0.000000 0.000000 47.176707 -33.648818 18.643109 -57.298416 -3.349207 1.796288 116.016500 -5.316583 0.656744 -10.004742 -3.122990 -7.968853 -63.355530 -32.532498 26.869735 0.000000 0.000000 0.000000 47.176707 -33.648818 18.643109 -89.005479 -13.173201 -13.647678 109.728703 -10.581997 5.055933 -46.076002 -13.161412 7.506182 -9.529523 0.000043 0.000002 0.000000 0.000000 0.000000 47.176707 -33.648818 18.643109 31.417426 9.184676 -0.007351 6.973904 2.045119 0.742942 0.000000 0.000000 0.000000 0.000000 0.000000 0.000000 6.951630 2.112849 0.758491 -7.147385 -3.347714 0.366292 -20.800945 -14.109169 -7.588871 0.000000 0.000000 0.000000 6.951630 2.112849 0.758491 5.880275 -24.606320 -8.861687 0.000000 0.000000 0.000000 -26.458080 -6.906718 -40.061566 -0.000007 -41.627431 -0.000006 0.000000 0.000000 0.000000 6.951630 2.112849 0.758491 0.069454 27.515632 12.075458 0.000000 0.000000 0.000000 -38.169132 47.324571 12.915027 0.000004 21.820988 -0.000005 0.000000 0.000000 0.000000 
6.669075 22.240377 -17.481733 0.000000 0.000000 0.000000 46.037756 -34.603900 18.857818 -61.855785 -5.001881 2.971279 118.343601 -7.020526 1.306051 -8.722319 -1.637697 -9.105075 -67.195626 -29.128103 21.882669 0.000000 0.000000 0.000000 46.037756 -34.603900 18.857818 -85.302315 -11.840416 -13.888048 107.427701 -8.882780 5.190849 -46.106161 -13.853487 7.887092 -8.881947 0.000065 0.000012 0.000000 0.000000 0.000000 46.037756 -34.603900 18.857818 31.890635 8.984194 -1.023743 7.073829 2.060560 0.500869 0.000000 0.000000 0.000000 0.000000 0.000000 0.000000 7.052991 2.127540 0.515828 -6.700977 -2.817857 -0.200210 -20.783251 -12.215096 -7.424484 0.000000 0.000000 0.000000 7.052991 2.127540 0.515828 6.184821 -25.737515 -8.719600 0.000000 0.000000 0.000000 -25.567743 -5.399187 -37.802911 0.000004 -43.339316 0.000006 0.000000 0.000000 0.000000 7.052991 2.127540 0.515828 0.371363 27.275269 10.690494 0.000000 0.000000 0.000000 -37.139160 46.241945 12.993744 0.000003 25.612286 0.000019 0.000000 0.000000 0.000000 
6.657484 22.669592 -16.835516 0.000000 0.000000 0.000000 45.352197 -35.019725 18.950537 -67.832644 -7.933004 6.052835 120.389543 -8.657361 1.298705 -6.901067 -0.492641 -9.349612 -72.407450 -19.582917 13.209374 0.000000 0.000000 0.000000 45.352197 -35.019725 18.950537 -81.483351 -10.600395 -14.237693 104.629913 -7.029151 5.538470 -46.376100 -14.860157 7.960796 -8.305449 0.000051 0.000008 0.000000 0.000000 0.000000 45.352197 -35.019725 18.950537 31.990110 8.712688 -1.693298 7.064884 2.055937 0.350511 0.000000 0.000000 0.000000 0.000000 0.000000 0.000000 7.044984 2.121785 0.364701 -6.408398 -2.310498 -0.579000 -20.734721 -10.181992 -7.264296 0.000000 0.000000 0.000000 7.044984 2.121785 0.364701 6.320852 -26.347287 -8.474980 0.000000 0.000000 0.000000 -25.121719 -4.615679 -35.775407 -0.000015 -44.098877 -0.000002 0.000000 0.000000 0.000000 7.044984 2.121785 0.364701 0.673133 27.111019 9.277712 0.000000 0.000000 0.000000 -37.001997 45.385596 13.518100 0.000010 29.168412 -0.000009 0.000000 0.000000 0.000000 
6.702662 23.021242 -16.113157 0.000000 0.000000 0.000000 44.661121 -34.667896 18.810011 -73.168600 -11.897823 10.198044 120.651549 -10.601350 1.267035 -3.981860 0.660399 -10.934653 -74.374804 -9.731722 5.875801 0.000000 0.000000 0.000000 44.661121 -34.667896 18.810011 -77.770856 -9.497478 -15.244759 102.062683 -5.017626 5.501501 -46.987597 -16.489139 8.492506 -7.875169 0.000047 0.000005 0.000000 0.000000 0.000000 44.661121 -34.667896 18.810011 32.042907 8.307288 -1.869608 7.073521 1.986084 0.274269 0.000000 0.000000 0.000000 0.000000 0.000000 0.000000 7.054838 2.050721 0.287676 -6.313167 -1.893918 -0.837028 -20.580589 -8.487488 -7.042965 0.000000 0.000000 0.000000 7.054838 2.050721 0.287676 6.400848 -26.926921 -8.002630 0.000000 0.000000 0.000000 -25.440609 -4.122256 -33.844687 -0.000020 -44.237885 -0.000002 0.000000 0.000000 0.000000 7.054838 2.050721 0.287676 1.114154 26.227850 7.102849 0.000000 0.000000 0.000000 -38.539503 45.299727 15.508723 -0.000008 31.555563 0.000005 0.000000 0.000000 0.000000 
